# xmcd CD database file
#
# Track frame offsets:
#	150
#	14865
#	39633
#	56909
#	78764
#	95217
#	110230
#	129219
#	143101
#	159065
#	192532
#	205806
#
# Disc length: 3065 seconds
#
# Revision: 4
# Processed by: cddbd v1.5.2PL0 Copyright (c) Steve Scherf et al.
# Submitted via: CDex 1.70beta2
#
DISCID=ab0bf70c
DTITLE=Aromaterapia - Tranquilidad
DYEAR=1900
DGENRE=New Age
TTITLE0=Behind The Waterfall (Bajo La Cascada)
TTITLE1=The Waiting (La Espera)
TTITLE2=Tomorrows Childs
TTITLE3=Saguaro
TTITLE4=Shadow Dancer
TTITLE5=Night Wind
TTITLE6=Oaks
TTITLE7=After The Rain
TTITLE8=Sunshower
TTITLE9=Indian Summer
TTITLE10=Valleyin Coulds
TTITLE11=Campanas Tubulares
EXTD=
EXTT0=
EXTT1=
EXTT2=
EXTT3=
EXTT4=
EXTT5=
EXTT6=
EXTT7=
EXTT8=
EXTT9=
EXTT10=
EXTT11=
PLAYORDER=
